<mxfile host="app.diagrams.net" modified="2022-08-27T18:55:26.577Z" agent="5.0 (Windows)" etag="UUD3ppDZdk3dFWTDB1KD" version="20.2.1" type="github">
  <diagram id="VUJQxslYSBSRquYupNUc" name="Page-1">
    <mxGraphModel dx="1182" dy="722" grid="1" gridSize="10" guides="1" tooltips="1" connect="1" arrows="1" fold="1" page="1" pageScale="1" pageWidth="850" pageHeight="1100" math="0" shadow="0">
      <root>
        <mxCell id="0" />
        <mxCell id="1" parent="0" />
        <mxCell id="rr_1Pio0r65B-UivvXRG-10" value="" style="edgeStyle=orthogonalEdgeStyle;rounded=0;orthogonalLoop=1;jettySize=auto;html=1;" edge="1" parent="1" source="rr_1Pio0r65B-UivvXRG-1" target="rr_1Pio0r65B-UivvXRG-6">
          <mxGeometry relative="1" as="geometry" />
        </mxCell>
        <mxCell id="rr_1Pio0r65B-UivvXRG-21" style="edgeStyle=orthogonalEdgeStyle;rounded=0;orthogonalLoop=1;jettySize=auto;html=1;exitX=1;exitY=0.75;exitDx=0;exitDy=0;entryX=0;entryY=0.75;entryDx=0;entryDy=0;" edge="1" parent="1" source="rr_1Pio0r65B-UivvXRG-1" target="rr_1Pio0r65B-UivvXRG-7">
          <mxGeometry relative="1" as="geometry" />
        </mxCell>
        <mxCell id="rr_1Pio0r65B-UivvXRG-1" value="Цена на детайли" style="rounded=0;whiteSpace=wrap;html=1;" vertex="1" parent="1">
          <mxGeometry x="140" y="80" width="120" height="60" as="geometry" />
        </mxCell>
        <mxCell id="rr_1Pio0r65B-UivvXRG-2" value="Труд" style="rounded=0;whiteSpace=wrap;html=1;" vertex="1" parent="1">
          <mxGeometry x="140" y="170" width="120" height="60" as="geometry" />
        </mxCell>
        <mxCell id="rr_1Pio0r65B-UivvXRG-3" value="Транспорт" style="rounded=0;whiteSpace=wrap;html=1;" vertex="1" parent="1">
          <mxGeometry x="140" y="260" width="120" height="60" as="geometry" />
        </mxCell>
        <mxCell id="rr_1Pio0r65B-UivvXRG-5" value="Печалба" style="ellipse;whiteSpace=wrap;html=1;" vertex="1" parent="1">
          <mxGeometry x="140" y="360" width="120" height="80" as="geometry" />
        </mxCell>
        <mxCell id="rr_1Pio0r65B-UivvXRG-6" value="Прави" style="rounded=1;whiteSpace=wrap;html=1;" vertex="1" parent="1">
          <mxGeometry x="360" y="20" width="120" height="60" as="geometry" />
        </mxCell>
        <mxCell id="rr_1Pio0r65B-UivvXRG-7" value="Хофман" style="rounded=1;whiteSpace=wrap;html=1;" vertex="1" parent="1">
          <mxGeometry x="490" y="50" width="120" height="60" as="geometry" />
        </mxCell>
      </root>
    </mxGraphModel>
  </diagram>
</mxfile>
